<svg width="20" height="20" viewBox="0 0 20 20" fill="none" xmlns="http://www.w3.org/2000/svg">
<path fill-rule="evenodd" clip-rule="evenodd" d="M9.12488 1.75C5.18985 1.75 1.99988 4.93997 1.99988 8.875C1.99988 12.81 5.18985 16 9.12488 16C13.0599 16 16.2499 12.81 16.2499 8.875C16.2499 4.93997 13.0599 1.75 9.12488 1.75ZM0.499878 8.875C0.499878 4.11154 4.36142 0.25 9.12488 0.25C13.8883 0.25 17.7499 4.11154 17.7499 8.875C17.7499 10.9867 16.991 12.9211 15.7311 14.4204L19.7803 18.4696C20.0732 18.7625 20.0732 19.2374 19.7803 19.5303C19.4874 19.8232 19.0125 19.8232 18.7196 19.5303L14.6705 15.4811C13.1711 16.7411 11.2366 17.5 9.12488 17.5C4.36142 17.5 0.499878 13.6385 0.499878 8.875ZM9.87488 5.875C9.87488 5.46079 9.53909 5.125 9.12488 5.125C8.71066 5.125 8.37488 5.46079 8.37488 5.875V8.125H6.12488C5.71066 8.125 5.37488 8.46079 5.37488 8.875C5.37488 9.28921 5.71066 9.625 6.12488 9.625H8.37488V11.875C8.37488 12.2892 8.71066 12.625 9.12488 12.625C9.53909 12.625 9.87488 12.2892 9.87488 11.875V9.625H12.1249C12.5391 9.625 12.8749 9.28921 12.8749 8.875C12.8749 8.46079 12.5391 8.125 12.1249 8.125H9.87488V5.875Z" fill="white"/>
</svg>
